# xmcd
#
# Track frame offsets: 
#        150
#        16479
#        30933
#        55063
#        70136
#        85875
#        99705
#        113455
#        130443
#        144172
#        158037
#
# Disc length: 2307 seconds
#
# Revision: 0
# Processed by: cddbd v1.5.2PL0 Copyright (c) Steve Scherf et al.
# Submitted via: ExactAudioCopyFreeDBPlugin 1.0
#
DISCID=8309010b
DTITLE=The Two Tracks - The Two Tracks
DYEAR=2016
DGENRE=Americana
TTITLE0=Into the Grey
TTITLE1=Bird's Eye View
TTITLE2=Old Victrola
TTITLE3=Faded Lovers
TTITLE4=Going Somewhere
TTITLE5=Sing Me a Song
TTITLE6=Sunset Sky
TTITLE7=Railroading
TTITLE8=Song for a Friend
TTITLE9=Wayfaring Stranger
TTITLE10=Wild Wyoming
EXTD=
EXTT0=
EXTT1=
EXTT2=
EXTT3=
EXTT4=
EXTT5=
EXTT6=
EXTT7=
EXTT8=
EXTT9=
EXTT10=
PLAYORDER=
